<svg viewBox="0 0 330 200" xmlns="http://www.w3.org/2000/svg"><g><g><g><g><g><line x1="60" y1="178" x2="55" y2="178" style="visibility: inherit;" fill="rgb(0, 0, 0)" stroke="rgb(204, 204, 204)" stroke-width="1px"></line><line x1="60" y1="158.2222222222222" x2="55" y2="158.2222222222222" style="visibility: inherit;" fill="rgb(0, 0, 0)" stroke="rgb(204, 204, 204)" stroke-width="1px"></line><line x1="60" y1="138.44444444444446" x2="55" y2="138.44444444444446" style="visibility: inherit;" fill="rgb(0, 0, 0)" stroke="rgb(204, 204, 204)" stroke-width="1px"></line><line x1="60" y1="118.66666666666669" x2="55" y2="118.66666666666669" style="visibility: inherit;" fill="rgb(0, 0, 0)" stroke="rgb(204, 204, 204)" stroke-width="1px"></line><line x1="60" y1="98.8888888888889" x2="55" y2="98.8888888888889" style="visibility: inherit;" fill="rgb(0, 0, 0)" stroke="rgb(204, 204, 204)" stroke-width="1px"></line><line x1="60" y1="79.1111111111111" x2="55" y2="79.1111111111111" style="visibility: inherit;" fill="rgb(0, 0, 0)" stroke="rgb(204, 204, 204)" stroke-width="1px"></line><line x1="60" y1="59.33333333333332" x2="55" y2="59.33333333333332" style="visibility: inherit;" fill="rgb(0, 0, 0)" stroke="rgb(204, 204, 204)" stroke-width="1px"></line><line x1="60" y1="39.55555555555557" x2="55" y2="39.55555555555557" style="visibility: inherit;" fill="rgb(0, 0, 0)" stroke="rgb(204, 204, 204)" stroke-width="1px"></line><line x1="60" y1="19.777777777777768" x2="55" y2="19.777777777777768" style="visibility: inherit;" fill="rgb(0, 0, 0)" stroke="rgb(204, 204, 204)" stroke-width="1px"></line><line x1="60" y1="0" x2="55" y2="0" style="visibility: inherit;" fill="rgb(0, 0, 0)" stroke="rgb(204, 204, 204)" stroke-width="1px"></line></g><g transform="translate(50, 0)"><text x="0" y="178" dx="0em" dy="0.3em" style="text-anchor: end; visibility: hidden; font-family: Roboto, sans-serif; font-size: 12px; font-weight: 200;" fill="rgb(50, 49, 63)" stroke="none" stroke-width="1px">-0.01</text><text x="0" y="158.2222222222222" dx="0em" dy="0.3em" style="text-anchor: end; visibility: inherit; font-family: Roboto, sans-serif; font-size: 12px; font-weight: 200;" fill="rgb(50, 49, 63)" stroke="none" stroke-width="1px">0</text><text x="0" y="138.44444444444446" dx="0em" dy="0.3em" style="text-anchor: end; visibility: hidden; font-family: Roboto, sans-serif; font-size: 12px; font-weight: 200;" fill="rgb(50, 49, 63)" stroke="none" stroke-width="1px">0.01</text><text x="0" y="118.66666666666669" dx="0em" dy="0.3em" style="text-anchor: end; visibility: inherit; font-family: Roboto, sans-serif; font-size: 12px; font-weight: 200;" fill="rgb(50, 49, 63)" stroke="none" stroke-width="1px">0.02</text><text x="0" y="98.8888888888889" dx="0em" dy="0.3em" style="text-anchor: end; visibility: hidden; font-family: Roboto, sans-serif; font-size: 12px; font-weight: 200;" fill="rgb(50, 49, 63)" stroke="none" stroke-width="1px">0.03</text><text x="0" y="79.1111111111111" dx="0em" dy="0.3em" style="text-anchor: end; visibility: inherit; font-family: Roboto, sans-serif; font-size: 12px; font-weight: 200;" fill="rgb(50, 49, 63)" stroke="none" stroke-width="1px">0.04</text><text x="0" y="59.33333333333332" dx="0em" dy="0.3em" style="text-anchor: end; visibility: hidden; font-family: Roboto, sans-serif; font-size: 12px; font-weight: 200;" fill="rgb(50, 49, 63)" stroke="none" stroke-width="1px">0.05</text><text x="0" y="39.55555555555557" dx="0em" dy="0.3em" style="text-anchor: end; visibility: inherit; font-family: Roboto, sans-serif; font-size: 12px; font-weight: 200;" fill="rgb(50, 49, 63)" stroke="none" stroke-width="1px">0.06</text><text x="0" y="19.777777777777768" dx="0em" dy="0.3em" style="text-anchor: end; visibility: hidden; font-family: Roboto, sans-serif; font-size: 12px; font-weight: 200;" fill="rgb(50, 49, 63)" stroke="none" stroke-width="1px">0.07</text><text x="0" y="0" dx="0em" dy="0.3em" style="text-anchor: end; visibility: hidden; font-family: Roboto, sans-serif; font-size: 12px; font-weight: 200;" fill="rgb(50, 49, 63)" stroke="none" stroke-width="1px">0.08</text></g><line x1="60" y1="0" x2="60" y2="178" fill="rgb(0, 0, 0)" stroke="rgb(204, 204, 204)" stroke-width="1px"></line></g></g><g transform="translate(60, 0)" clip-path="url(#clip_0)"><clipPath id="clip_0"><rect width="270" height="178"></rect></clipPath><g><g><g><line x1="0" y1="0" x2="0" y2="178" fill="rgb(0, 0, 0)" stroke="rgb(60, 60, 60)" stroke-width="1px" opacity="0.25"></line><line x1="30" y1="0" x2="30" y2="178" fill="rgb(0, 0, 0)" stroke="rgb(60, 60, 60)" stroke-width="1px" opacity="0.25"></line><line x1="60" y1="0" x2="60" y2="178" fill="rgb(0, 0, 0)" stroke="rgb(60, 60, 60)" stroke-width="1px" opacity="0.25"></line><line x1="90" y1="0" x2="90" y2="178" fill="rgb(0, 0, 0)" stroke="rgb(60, 60, 60)" stroke-width="1px" opacity="0.25"></line><line x1="120" y1="0" x2="120" y2="178" fill="rgb(0, 0, 0)" stroke="rgb(60, 60, 60)" stroke-width="1px" opacity="0.25"></line><line x1="150" y1="0" x2="150" y2="178" fill="rgb(0, 0, 0)" stroke="rgb(60, 60, 60)" stroke-width="1px" opacity="0.25"></line><line x1="180" y1="0" x2="180" y2="178" fill="rgb(0, 0, 0)" stroke="rgb(60, 60, 60)" stroke-width="1px" opacity="0.25"></line><line x1="210" y1="0" x2="210" y2="178" fill="rgb(0, 0, 0)" stroke="rgb(60, 60, 60)" stroke-width="1px" opacity="0.25"></line><line x1="240" y1="0" x2="240" y2="178" fill="rgb(0, 0, 0)" stroke="rgb(60, 60, 60)" stroke-width="1px" opacity="0.25"></line><line x1="270" y1="0" x2="270" y2="178" fill="rgb(0, 0, 0)" stroke="rgb(60, 60, 60)" stroke-width="1px" opacity="0.25"></line></g><g><line x1="0" y1="178" x2="270" y2="178" fill="rgb(0, 0, 0)" stroke="rgb(60, 60, 60)" stroke-width="1px" opacity="0.25"></line><line x1="0" y1="158.2222222222222" x2="270" y2="158.2222222222222" fill="rgb(0, 0, 0)" stroke="rgb(60, 60, 60)" stroke-width="1px" opacity="0.25"></line><line x1="0" y1="138.44444444444446" x2="270" y2="138.44444444444446" fill="rgb(0, 0, 0)" stroke="rgb(60, 60, 60)" stroke-width="1px" opacity="0.25"></line><line x1="0" y1="118.66666666666669" x2="270" y2="118.66666666666669" fill="rgb(0, 0, 0)" stroke="rgb(60, 60, 60)" stroke-width="1px" opacity="0.25"></line><line x1="0" y1="98.8888888888889" x2="270" y2="98.8888888888889" fill="rgb(0, 0, 0)" stroke="rgb(60, 60, 60)" stroke-width="1px" opacity="0.25"></line><line x1="0" y1="79.1111111111111" x2="270" y2="79.1111111111111" fill="rgb(0, 0, 0)" stroke="rgb(60, 60, 60)" stroke-width="1px" opacity="0.25"></line><line x1="0" y1="59.33333333333332" x2="270" y2="59.33333333333332" fill="rgb(0, 0, 0)" stroke="rgb(60, 60, 60)" stroke-width="1px" opacity="0.25"></line><line x1="0" y1="39.55555555555557" x2="270" y2="39.55555555555557" fill="rgb(0, 0, 0)" stroke="rgb(60, 60, 60)" stroke-width="1px" opacity="0.25"></line><line x1="0" y1="19.777777777777768" x2="270" y2="19.777777777777768" fill="rgb(0, 0, 0)" stroke="rgb(60, 60, 60)" stroke-width="1px" opacity="0.25"></line><line x1="0" y1="0" x2="270" y2="0" fill="rgb(0, 0, 0)" stroke="rgb(60, 60, 60)" stroke-width="1px" opacity="0.25"></line></g></g></g><g><g><line x1="0" y1="158.2222222222222" x2="270" y2="158.2222222222222" fill="rgb(0, 0, 0)" stroke="rgb(153, 153, 153)" stroke-width="1.5px"></line></g></g><g><g><line x1="30" y1="0" x2="30" y2="178" fill="rgb(0, 0, 0)" stroke="rgb(153, 153, 153)" stroke-width="1.5px"></line></g></g><g><g><g><g><g><path stroke="rgb(255, 112, 67)" stroke-width="2px" d="M36,-35.084013415707474L37.5,8.20329327715769L38.99999999999999,35.876957469516334L40.5,64.11924608217345L42,89.83630353543494L43.5,106.59467318985197L45,116.94539927939573L46.5,-25.20714346567791L48,1.7757456103960805L49.5,18.599077125390377L51,25.51848414209154L52.5,34.83764874604014L54,36.272357629405136L55.5,47.94413329164188L57,57.06297488013902L58.5,65.2718567781978L60,70.82811831765703L61.5,78.10738324456743L63,87.86652317643166L64.5,98.44752974145943L66,103.76239280071522L67.5,113.25437643627325L69,115.33154611123932L70.5,123.56823407279121L72,133.09930202613273L73.5,131.41695598098966L75,135.58303775638342L76.5,-15.40134327941471L77.99999999999999,27.065441403124066L79.5,43.91453810201752L81,42.36783871385786L82.5,46.61083475748699L84,48.34581818183264L85.5,50.90129414531919L87,56.89784046014149L88.5,60.27688133385445L90,56.74680800239244L91.5,60.04419158895809L93,69.07504695322777L94.5,72.7382563650608L96,72.64598945114348L97.5,72.94910059372583L99,79.74585590428775L100.5,80.48648889859516L102,80.68867596652773L103.5,86.59879802995256L105,87.81832305259174L106.5,90.66540902853012L108,98.13104973236719L109.5,98.68896874454285L111,105.34835149182213L112.5,111.2352576288912L114,107.5822415633334L115.5,116.0886645499203L117,115.62188149491945L118.5,119.99369977414608L120,120.37512690822282L121.5,128.96207806716362L123,127.7456548867954L124.50000000000001,133.01907961732812L126,134.79661943349572L127.5,135.84561312529775L129,139.03910157332817L130.5,141.91066152685218L132,143.04207783564925L133.5,142.1715109894673L135,143.45626771822572L136.5,-51.25849257575142L138,31.80181456274456L139.5,50.14080493979984L141,53.43000290460056L142.5,55.64677390125061L144,57.38256041540039L145.5,62.281562944253274L147,60.927111466725655L148.5,59.62037383847765L150,61.3460591038068L151.5,62.85988338457212L153,68.15454394618669L154.5,71.4052378071679L155.99999999999997,69.28167680237028L157.5,68.46413138177658L159,69.9288787709342L160.5,72.60377934575081L162,76.39478318558798L163.5,72.6767205297947L165,75.29799828264449L166.5,76.63183466593424L168,76.00664030512172L169.5,74.8138235443168L171,79.89304974012903L172.5,81.44620331790712L174,78.55751139587825L175.5,83.64921127094162L177,85.8878498872121L178.5,82.28011261423427L180,84.83539701501527L181.50000000000003,89.32344596584636L183,91.86544622977573L184.5,90.36209158764945L186,89.87292885118062L187.5,92.45346269011497L189,93.70078640845085L190.5,95.6191027098232L192,92.92838347620433L193.5,93.85674055417377L195,100.71843562192386L196.5,101.73741291132237L198,100.69992034965092L199.5,103.58607406583096L201,104.47415876885253L202.5,105.28911440902287L204,112.93325839936733L205.5,108.14004269076717L207,112.1939442406098L208.5,112.13350252310434L210,111.95285520785386L211.5,114.13998555971516L213,120.81406706074873L214.5,120.69026229447788L216,122.69531597859329L217.5,124.53681563503211L219,125.2975995524062L220.5,128.3004517952601L222,126.6633827007479L223.49999999999997,125.79196395311091L225,132.04074125074678L226.5,133.7592116014825L228,131.6520310499602L229.5,136.38750533842378L231,136.39614592161442L232.5,136.83782873633834L234,139.83215091294713L235.5,142.56255125585528L237,141.3255129812492L238.5,141.78164588660002L240,144.23568387164008L241.5,145.08325950925547L243,144.50298199802637L244.5,144.8485233589179L246,146.75775516736837L247.5,147.82965625905328L249.00000000000003,147.97713743895292L250.5,146.6542855190734L252,147.96588681389886L253.5,148.31532666004367L255,148.636222742084L256.5,-88.93379298183655L258,16.54142842690151" style="fill: none;" fill="none"></path></g></g></g></g></g></g><g transform="translate(60, 178)" clip-path="url(#clip_1)"><clipPath id="clip_1"><rect width="270" height="22"></rect></clipPath><g><g><line x1="0" y1="0" x2="0" y2="5" style="visibility: inherit;" fill="rgb(0, 0, 0)" stroke="rgb(204, 204, 204)" stroke-width="1px"></line><line x1="30" y1="0" x2="30" y2="5" style="visibility: inherit;" fill="rgb(0, 0, 0)" stroke="rgb(204, 204, 204)" stroke-width="1px"></line><line x1="60" y1="0" x2="60" y2="5" style="visibility: inherit;" fill="rgb(0, 0, 0)" stroke="rgb(204, 204, 204)" stroke-width="1px"></line><line x1="90" y1="0" x2="90" y2="5" style="visibility: inherit;" fill="rgb(0, 0, 0)" stroke="rgb(204, 204, 204)" stroke-width="1px"></line><line x1="120" y1="0" x2="120" y2="5" style="visibility: inherit;" fill="rgb(0, 0, 0)" stroke="rgb(204, 204, 204)" stroke-width="1px"></line><line x1="150" y1="0" x2="150" y2="5" style="visibility: inherit;" fill="rgb(0, 0, 0)" stroke="rgb(204, 204, 204)" stroke-width="1px"></line><line x1="180" y1="0" x2="180" y2="5" style="visibility: inherit;" fill="rgb(0, 0, 0)" stroke="rgb(204, 204, 204)" stroke-width="1px"></line><line x1="210" y1="0" x2="210" y2="5" style="visibility: inherit;" fill="rgb(0, 0, 0)" stroke="rgb(204, 204, 204)" stroke-width="1px"></line><line x1="240" y1="0" x2="240" y2="5" style="visibility: inherit;" fill="rgb(0, 0, 0)" stroke="rgb(204, 204, 204)" stroke-width="1px"></line><line x1="270" y1="0" x2="270" y2="5" style="visibility: inherit;" fill="rgb(0, 0, 0)" stroke="rgb(204, 204, 204)" stroke-width="1px"></line></g><g transform="translate(0, 8)"><text x="0" y="0" dx="0em" dy="0.95em" style="text-anchor: middle; visibility: hidden; font-family: Roboto, sans-serif; font-size: 12px; font-weight: 200;" fill="rgb(50, 49, 63)" stroke="none" stroke-width="1px">-20</text><text x="30" y="0" dx="0em" dy="0.95em" style="text-anchor: middle; visibility: inherit; font-family: Roboto, sans-serif; font-size: 12px; font-weight: 200;" fill="rgb(50, 49, 63)" stroke="none" stroke-width="1px">0</text><text x="60" y="0" dx="0em" dy="0.95em" style="text-anchor: middle; visibility: inherit; font-family: Roboto, sans-serif; font-size: 12px; font-weight: 200;" fill="rgb(50, 49, 63)" stroke="none" stroke-width="1px">20</text><text x="90" y="0" dx="0em" dy="0.95em" style="text-anchor: middle; visibility: inherit; font-family: Roboto, sans-serif; font-size: 12px; font-weight: 200;" fill="rgb(50, 49, 63)" stroke="none" stroke-width="1px">40</text><text x="120" y="0" dx="0em" dy="0.95em" style="text-anchor: middle; visibility: inherit; font-family: Roboto, sans-serif; font-size: 12px; font-weight: 200;" fill="rgb(50, 49, 63)" stroke="none" stroke-width="1px">60</text><text x="150" y="0" dx="0em" dy="0.95em" style="text-anchor: middle; visibility: inherit; font-family: Roboto, sans-serif; font-size: 12px; font-weight: 200;" fill="rgb(50, 49, 63)" stroke="none" stroke-width="1px">80</text><text x="180" y="0" dx="0em" dy="0.95em" style="text-anchor: middle; visibility: inherit; font-family: Roboto, sans-serif; font-size: 12px; font-weight: 200;" fill="rgb(50, 49, 63)" stroke="none" stroke-width="1px">100</text><text x="210" y="0" dx="0em" dy="0.95em" style="text-anchor: middle; visibility: inherit; font-family: Roboto, sans-serif; font-size: 12px; font-weight: 200;" fill="rgb(50, 49, 63)" stroke="none" stroke-width="1px">120</text><text x="240" y="0" dx="0em" dy="0.95em" style="text-anchor: middle; visibility: inherit; font-family: Roboto, sans-serif; font-size: 12px; font-weight: 200;" fill="rgb(50, 49, 63)" stroke="none" stroke-width="1px">140</text><text x="270" y="0" dx="0em" dy="0.95em" style="text-anchor: middle; visibility: hidden; font-family: Roboto, sans-serif; font-size: 12px; font-weight: 200;" fill="rgb(50, 49, 63)" stroke="none" stroke-width="1px">160</text></g><line x1="0" y1="0" x2="270" y2="0" fill="rgb(0, 0, 0)" stroke="rgb(204, 204, 204)" stroke-width="1px"></line></g></g></g></g></svg>